<?xml version="1.0" encoding="utf-8"?>
<!-- Generator: Adobe Illustrator 15.0.2, SVG Export Plug-In . SVG Version: 6.00 Build 0)  -->
<!DOCTYPE svg PUBLIC "-//W3C//DTD SVG 1.1//EN" "http://www.w3.org/Graphics/SVG/1.1/DTD/svg11.dtd">
<svg version="1.1" id="Ebene_1" xmlns="http://www.w3.org/2000/svg" xmlns:xlink="http://www.w3.org/1999/xlink" x="0px" y="0px"
	 width="512px" height="516px" viewBox="0 0 512 516" enable-background="new 0 0 512 516" xml:space="preserve">
<g>
	<path fill="#FFED00" d="M365.661,225.115c-6.969,1.145-24.879,1.552-8.385,15.684c0,0,3.05,0.225-5.094,5.025
		c-8.145,4.809,18.146,7.666,21.255,11.143c3.11,3.51-26.056-0.322-25.486,8.455c0.562,8.791-5.009,3.242,14.361,23.926
		c0,0-11.638-2.702-12.989-1.068c-1.372,1.658,25.482,23.911,25.312,30.242c0,0-5.461,3.789-7.791,0.48
		c-2.323-3.332-18.555-21.281-21.182-21.805c-1.98-0.387-5.771,0.523-7.525,4.008c0,0,7.094,16.531,4.877,16.987
		c-2.232,0.457-13.322-7.347-13.322-7.347s-7.277,3.203-4.88,9.793c2.366,6.6,22.146,29.025,21.017,30.398
		c0,0-1.682,3.686-4.236,3.428c-2.543-0.273-16.229-25.031-19.601-25.98c-3.375-0.947,3.929,23.133,3.929,23.133
		s-12.34-12.996-15.631-15.711c-3.279-2.723-3.768,2.877-3.768,2.877l3.574,27.477c0,0-38.452-57.324-29.046,11.031
		c0,0-0.889,3.871-2.158,3.746c-1.279-0.137-9.451-22.627-8.516-28.77c0.957-6.159-6.738,17.045-6.738,17.045
		s-12.057-47.898-37.029,1.189c0,0-1.742-18.543-5.586-21.725c-3.823-3.178-7.01-4.889-7.975-4.307
		c-0.947,0.584-9.785,8.994-13.237,9.828c-3.444,0.818,2.751-11.119-2.36-14.447c0,0,0.457-3.32-2.512-8.096
		c-2.982-4.779-5.854-2.992-23.061,15.553c0,0,7.193-17.594,7.127-23.668c-0.048-6.066-6.748-7.463-6.748-7.463
		s-12.523,9.52-16.153,8.347c-3.654-1.179,5.993-12.834,6.163-16.058c0.053-1.016-1.388-0.625-1.388-0.625s-1.501-1.076-14.081,6.26
		L126.4,327.079c-1.499-0.912-3.501-0.742-2.89-5.582c0.173-1.396,38.092-19.225,36.399-21.096
		c-1.682-1.855-14.355-4.958-14.355-4.958s7.945-9.583,5.573-10.64c-2.367-1.032-19.678-2.465-19.678-2.465
		s-2.991-4.756-2.375-3.816c0.573,0.949,16.93-2.59,16.93-2.59l-10.914-8.573c0,0,27.602-4.851,3.239-19.519
		c-9.017-5.42-18.428-9.133-28.598-10.97c25.984,1.284,43.171-5.288,40.255-14.803c0,0-0.827-3.453-26.732-12.915
		c0,0,0.722-3.09,2.449-3.507c1.737-0.418,28.671,9.442,26.768,7.859c-1.921-1.589-11.781-12.552-10.004-12.452
		c1.782,0.079,14.428,5.428,18.623,1.495c4.018-3.759,6.543-10.685,9.184-12.189c2.646-1.507-7.042-10.469,5.725-6.343
		c0,0,8.651-4.858,1.834-12.8c-6.817-7.968-28.428-33.523,6.829-2.668c8.43,7.385,29.525-15.118,27.788-27.36
		c0,0,8.429,8.497,10.216,9.404c1.783,0.918,13.584,2.322,16.266-1.766c1.235-1.884-4.331-19.303-0.753-26.969
		c0,0,1.504-0.134,2.919,1.493c1.42,1.64,1.582,19.813,7.987,23.265c0,0,7.189-4.213,8.403-7.357
		c1.226-3.15-1.953,19.638,19.618,9.806c0,0,10.498-9.326,13.512-9.606c2.994-0.28-2.254,11.078,0.395,15.115
		c2.668,4.054,11.506,6.762,14.312,1.695c2.823-5.053,16.276-15.163,17.325-14.757c1.047,0.421-6.846,21.476-7.753,23.542
		c-1.315,3.011-2.243,7.468-2.243,7.468s1.029,5.88,8.379,7.5c0,0,13.879-8.107,28.318-18.631c-1.514,1.821-3.041,3.713-4.582,5.735
		c0,0-18.684,19.19-18.688,21.967c0.025,2.775,6.406,9.011,11.641,5.484c5.236-3.506,17.877-8.743,18.982-7.835
		c1.088,0.902,3.102,3.499,0.475,5.019c-2.637,1.503-17.34,9.193-17.34,9.193s16.795,1.149,37.338-3.005
		c-22.236,9.023-29.943,22.757-29.746,24.058c0.656,4.41,35.217-4.548,36.164-2.366
		C388.552,230.894,372.647,223.939,365.661,225.115 M511.638,226.004c-0.205-1.331-3.561-2.529-5.803-4.383
		c-7.633-6.364-34.902-33.199-88.572-31.461c-6.793,0.216-12.988,0.859-18.627,1.817c11.432-3.705,17.348-5.927,20.793-7.295
		c4.158-1.655,31.55-11.043,46.289-59.161c1.258-4.106,4.815-14.026,3.924-14.779c-1.088-0.925-10.301,0.724-19.611,6.385
		c-9.338,5.68-40.713,10.633-44.438,11.228c-2.189,0.351-11.402-1.033-25.164,6.195c15.509-15.926,31.961-38.56,36.384-70.348
		c2.108-15.241,1.216-21.452,0.56-21.412c-0.916,0.066-1.438,0.075-2.57,0.409c-3.457,1.025-6.957,3.937-18.369,11.574
		c-11.422,7.632-23.521,16.088-23.521,16.088s4.145-41.499,2.855-42.469c-1.264-0.937-24.826-0.714-60.994,39.565
		c0,0,4.109-34.501-2.676-47.515c0,0-1.879-9.418-3.354-14.34c-0.739-2.463-2.668-5.065-2.986-4.841
		c-0.379,0.26-3.578,0.793-8.717,6.686c-7.979,9.137-45.062,20.322-51.201,68.303c-4.646-19.363-14.508-45.256-38.846-58.373
		C193.25,4.421,187.134,0.402,186.429,0.75c-0.618,0.313-0.351,6.298-2.44,19.772c-2.348,15.104-4.453,19.883-4.453,19.883
		s-25.503-22.432-26.166-23.09c-1.198-1.18-16.746,48.069-12.184,72.658c0,0-8.074-6.258-22.76-13.797
		c-16.679-8.569-44.736-10.051-44.538-8.73c0.335,2.222,23.675,47.825,33.5,63.842c0,0-62.882-10.806-61.785-6.873
		c0.364,1.293,1.868,3.763,4.351,14.259c0,0-24.68-0.539-24.358,1.506c0.353,2.284,18.709,32.621,20.119,34.275
		c0,0-19.093,3.691-23.125,3.91c-2.731,0.153,12.755,42.91,55.204,53.587c6.416,1.613,12.623,2.812,18.539,3.639
		c-13.916-0.265-29.307,2.638-46.991,9.194c0,0-10.244,3.986-15.654,8.273c-5.419,4.306-32.361,8.835-33.687,12.76
		c0.628,2.888,32.911,24.974,32.911,24.974s-18.91,9.238-20.21,10.973c-0.891,1.209-1.612,2.287-1.375,2.625
		c0.222,0.326,1.499,1.836,4.773,3.877c7.563,4.695,74.879,11.729,79.026,10.066c4.138-1.645-36.569,44.104-37.196,67.154
		c0,0,6.665,0.48,10.432,0.791c2.887,0.23-12.272,28.836-9.526,28.719c18.291-0.77,48.631-18.467,54.323-22.543
		c5.688-4.058,13.468-10.095,15.55-12.061c2.104-1.969-13.274,25.512-6.98,49.684c0,0,1.998,18.756,2.107,22.549
		c0.096,3.771,5.432,3.787,5.381,6.309c-0.05,3.091,14.827-11.746,21.879-17.457c7.05-5.695,16.629-16.702,21.264-23.973
		c4.627-7.242,0.504,56.82-1.38,69.139c-0.612,3.99,0.295,4.404,0.929,5.727c0.189,0.408,6.771-5.011,8.857-6.4
		c3.106-2.064,35.212-45.241,37.236-56.041c0,0,17.12,75.225,22.928,83.279c1.258,1.742,2.307,3.695,3.178,2.336
		c1.706-2.682,4.26-9.713,6.187-10.293c2.473-0.742,9.705-1.654,13.504-12.375c3.809-10.725,10.652-21.201,13.863-49.047
		c0,0,36.4,46.408,41.13,50.729c1.877,1.719,11.771-14.734,16.119-41.161c4.371-26.44-5.02-61.955-10.951-63.173
		c0,0-2.477-3.9,4.42-1.434c3.926,1.418,19.078,27.703,54.014,47.67c5.878,3.356,18.381,3.416,18.453,3.193
		c2.811-7.846-24.609-79.582-24.609-79.582s0.682-0.822,6.205,1.438c5.507,2.267,57.863,36.123,89.623,20.252
		c6.441-3.211,6.812-3.889,6.812-3.889c3.639-15.644-24.334-45.211-41.512-58.638c0,0,45.112-1.834,52.031-13.796
		c0,0,8.318-2.995,12.609-8.926c0.746-1.037-4.857-11.334-11.363-15.852c-17.037-11.811-20.727-16.264-20.727-16.264
		s4.758-5.752,11.639-7.915c6.879-2.158,29.123-15.867,23.178-22.627C504.733,233.855,511.892,227.631,511.638,226.004"/>
</g>
</svg>
